<?xml version="1.0" encoding="iso-8859-1"?>
<!-- Generator: Adobe Illustrator 21.0.0, SVG Export Plug-In . SVG Version: 6.00 Build 0)  -->
<svg version="1.1" id="Capa_1" xmlns="http://www.w3.org/2000/svg" xmlns:xlink="http://www.w3.org/1999/xlink" x="0px" y="0px"
	 viewBox="0 0 511.98 511.98" style="enable-background:new 0 0 511.98 511.98;" xml:space="preserve">
<g>
	<g transform="translate(1 1)">
		<path style="fill:#E3E7F2;" d="M314.714,101.389L144.9,43.106c-6.415-2.256-13.465-1.858-19.586,1.106
			c-6.12,2.964-10.804,8.249-13.012,14.68L8.956,356.877c-2.251,6.449-1.831,13.53,1.166,19.668
			c2.997,6.138,8.322,10.824,14.792,13.015l136.201,46.763L314.714,101.389z"/>
		<path style="fill:#A4C2F7;" d="M502.447,126.989v213.333l-128,128H186.714c-14.139,0-25.6-11.462-25.6-25.6V126.989
			c0-14.138,11.462-25.6,25.6-25.6h290.133C490.985,101.389,502.447,112.851,502.447,126.989z"/>
		<g>
			<path style="fill:#E3E7F2;" d="M476.847,126.989v213.333l-128,128H186.714c-14.139,0-25.6-11.462-25.6-25.6V126.989
				c0-14.138,11.462-25.6,25.6-25.6h264.533C465.385,101.389,476.847,112.851,476.847,126.989z"/>
			<circle style="fill:#E3E7F2;" cx="331.78" cy="101.389" r="34.133"/>
		</g>
		<path style="fill:#A4C2F7;" d="M502.447,340.322l-128,128v-102.4c0-14.138,11.462-25.6,25.6-25.6H502.447z"/>
		<path style="fill:#FFFFFF;" d="M24.913,389.56l136.201,46.763v6.4c0,14.138,11.462,25.6,25.6,25.6h25.6
			c-14.138,0-25.6-11.462-25.6-25.6v-6.409L50.513,389.56c-6.469-2.191-11.795-6.877-14.792-13.015
			c-2.997-6.138-3.417-13.219-1.166-19.668L137.894,58.893c2.091-6.033,6.378-11.057,12.006-14.071l-5.009-1.707
			c-6.415-2.256-13.465-1.858-19.586,1.106c-6.12,2.964-10.804,8.249-13.012,14.68L8.956,356.877
			c-2.251,6.449-1.831,13.53,1.166,19.668C13.118,382.683,18.444,387.368,24.913,389.56z"/>
	</g>
	<g>
		<polygon style="fill:#FFFFFF;" points="121.358,62.692 85.006,167.498 18.011,360.676 1.892,355.078 68.887,161.909 
			105.23,57.094 		"/>
		<g>
			<path style="fill:#428DFF;" d="M85.314,130.745c0.828,0.747,1.793,1.327,2.842,1.707c3.269,1.155,6.911,0.217,9.216-2.373
				c2.305-2.589,2.814-6.316,1.288-9.429l-0.853-1.391c-0.346-0.46-0.75-0.874-1.203-1.229c-0.376-0.389-0.807-0.719-1.28-0.981
				c-0.501-0.276-1.02-0.518-1.553-0.725c-2.146-0.708-4.48-0.58-6.537,0.358c-4.159,2.149-5.907,7.178-3.977,11.443
				C83.771,129.121,84.469,130.009,85.314,130.745z"/>
			<path style="fill:#428DFF;" d="M477.847,93.856H374.594c-3.78-18.366-19.107-32.111-37.775-33.876
				c-18.667-1.765-36.299,8.864-43.454,26.196L148.716,36.051c-8.555-3.007-17.956-2.477-26.118,1.474s-14.411,10.994-17.36,19.569
				L94.06,89.342c-1.066,2.896-0.485,6.142,1.52,8.489c2.004,2.347,5.119,3.428,8.146,2.829c3.027-0.599,5.495-2.786,6.454-5.72
				l11.187-32.247c1.469-4.288,4.592-7.809,8.673-9.781c4.081-1.972,8.781-2.229,13.053-0.715l120.294,41.66h-75.674
				c-18.851,0-34.133,15.282-34.133,34.133v297.387L28.627,382.47c-4.308-1.466-7.852-4.591-9.846-8.682
				c-1.993-4.091-2.27-8.808-0.77-13.104l69.794-201.242c1-2.884,0.385-6.082-1.612-8.39c-1.998-2.308-5.075-3.375-8.073-2.799
				c-2.998,0.576-5.46,2.708-6.46,5.592L1.892,355.07c-2.985,8.588-2.42,18.011,1.569,26.181s11.072,14.411,19.679,17.339
				l130.441,44.826v0.307c0,18.851,15.282,34.133,34.133,34.133h187.733c1.119-0.005,2.226-0.229,3.26-0.657
				c1.037-0.426,1.979-1.053,2.773-1.843l128-128c0.791-0.794,1.417-1.737,1.843-2.773c0.429-1.034,0.652-2.141,0.657-3.26V127.989
				C511.98,109.138,496.698,93.856,477.847,93.856z M332.78,76.789c14.138,0,25.6,11.462,25.6,25.6s-11.462,25.6-25.6,25.6
				c-14.138,0-25.6-11.462-25.6-25.6S318.642,76.789,332.78,76.789z M170.647,443.722V127.989c0-9.426,7.641-17.067,17.067-17.067
				h103.253c4.038,19.885,21.522,34.176,41.813,34.176c20.291,0,37.775-14.291,41.813-34.176h103.253
				c9.426,0,17.067,7.641,17.067,17.067v204.8h-93.867c-18.851,0-34.133,15.282-34.133,34.133v93.867h-179.2
				C178.288,460.789,170.647,453.148,170.647,443.722z M482.848,349.856l-98.867,98.867v-81.801c0-9.426,7.641-17.067,17.067-17.067
				H482.848z"/>
			<path style="fill:#428DFF;" d="M213.314,187.722h59.733c4.713,0,8.533-3.821,8.533-8.533c0-4.713-3.82-8.533-8.533-8.533h-59.733
				c-4.713,0-8.533,3.821-8.533,8.533C204.78,183.902,208.601,187.722,213.314,187.722z"/>
			<path style="fill:#428DFF;" d="M213.314,230.389h213.333c4.713,0,8.533-3.821,8.533-8.533s-3.821-8.533-8.533-8.533H213.314
				c-4.713,0-8.533,3.82-8.533,8.533S208.601,230.389,213.314,230.389z"/>
			<path style="fill:#428DFF;" d="M213.314,273.056h213.333c4.713,0,8.533-3.82,8.533-8.533s-3.821-8.533-8.533-8.533H213.314
				c-4.713,0-8.533,3.821-8.533,8.533S208.601,273.056,213.314,273.056z"/>
			<path style="fill:#428DFF;" d="M213.314,315.722h213.333c4.713,0,8.533-3.821,8.533-8.533c0-4.713-3.821-8.533-8.533-8.533
				H213.314c-4.713,0-8.533,3.821-8.533,8.533C204.78,311.902,208.601,315.722,213.314,315.722z"/>
			<path style="fill:#428DFF;" d="M247.447,375.456h-34.133c-4.713,0-8.533,3.82-8.533,8.533s3.821,8.533,8.533,8.533h34.133
				c4.713,0,8.533-3.82,8.533-8.533S252.16,375.456,247.447,375.456z"/>
		</g>
	</g>
</g>
<g>
</g>
<g>
</g>
<g>
</g>
<g>
</g>
<g>
</g>
<g>
</g>
<g>
</g>
<g>
</g>
<g>
</g>
<g>
</g>
<g>
</g>
<g>
</g>
<g>
</g>
<g>
</g>
<g>
</g>
</svg>
